<svg id="Layer_1" data-name="Layer 1" xmlns="http://www.w3.org/2000/svg" xmlns:xlink="http://www.w3.org/1999/xlink" viewBox="0 0 733.75 808.75">
  <title>samr_ui</title>
  <g>
    <g id="contact">
      <image width="697" height="511" transform="translate(35.02 294.14)" xlink:href="../3D9B75CE.png" style="isolation: isolate"/>
      <polygon points="466.5 643 260.65 643 308.5 608 466.5 608 466.5 643" style="fill: #333"/>
      <g>
        <path d="M349.87,633.11a10.34,10.34,0,0,1-4.19.76c-3.92,0-7.47-2.52-7.47-8.17,0-5,3.06-8.38,8-8.38a7.59,7.59,0,0,1,3.59.68l-.38,1.12a7.38,7.38,0,0,0-3.21-.7c-4,0-6.65,2.69-6.65,7.28,0,4.36,2.41,7.07,6.5,7.07a8.48,8.48,0,0,0,3.47-.72Z" transform="translate(0.5)" style="fill: #e6e3e4"/>
        <path d="M365.93,625.47c0,5.69-3.3,8.42-7,8.42-3.91,0-6.88-3.06-6.88-8.13,0-5.33,3.07-8.44,7.07-8.44S365.93,620.52,365.93,625.47Zm-12.55.25c0,3.56,2,7.1,5.56,7.1s5.63-3.44,5.63-7.28c0-3.35-1.73-7.14-5.56-7.14S353.38,622.15,353.38,625.72Z" transform="translate(0.5)" style="fill: #e6e3e4"/>
        <path d="M380.45,633.64H379.2l-5.78-9.08a56.19,56.19,0,0,1-3-5.25l-.06,0c.12,2,.14,3.77.14,6.52v7.79h-1.25V617.58h1.3l5.86,9.16a53.27,53.27,0,0,1,2.94,5.12l0,0c-.17-2.2-.19-4-.19-6.58v-7.68h1.27v16.06Z" transform="translate(0.5)" style="fill: #e6e3e4"/>
        <path d="M394.05,618.68h-5v15h-1.32v-15h-5v-1.11h11.34v1.11Z" transform="translate(0.5)" style="fill: #e6e3e4"/>
        <path d="M407.26,633.64h-1.38l-1.9-5.5h-6.07l-1.89,5.5h-1.33l5.61-16.06h1.35Zm-3.62-6.56-1.82-5.19c-.36-1.12-.61-2-.85-3h-.06a27.68,27.68,0,0,1-.82,2.89l-1.85,5.28Z" transform="translate(0.5)" style="fill: #e6e3e4"/>
        <path d="M420.89,633.11a10.3,10.3,0,0,1-4.19.76c-3.91,0-7.47-2.52-7.47-8.17,0-5,3.06-8.38,8-8.38a7.69,7.69,0,0,1,3.6.68l-.39,1.12a7.38,7.38,0,0,0-3.21-.7c-4,0-6.65,2.69-6.65,7.28,0,4.36,2.41,7.07,6.5,7.07a8.48,8.48,0,0,0,3.47-.72Z" transform="translate(0.5)" style="fill: #e6e3e4"/>
        <path d="M433.35,618.68h-5v15H427v-15h-5v-1.11h11.34v1.11Z" transform="translate(0.5)" style="fill: #e6e3e4"/>
      </g>
      <g>
        <polygon points="42.85 804 731.75 804 731.75 297.75 42.85 804" style="fill: none"/>
        <polygon points="727.61 292.11 33.61 802.11 31.03 804 42.85 804 730.7 298.52 730.7 289.83 727.61 292.11" style="fill: #fff"/>
      </g>
    </g>
    <g id="cv">
      <image width="435" height="492" transform="translate(296.7)" xlink:href="../3D9B75D2.png" style="isolation: isolate"/>
      <polygon points="531.5 90 330.3 90 319.55 55 531.5 55 531.5 90" style="fill: #333"/>
      <g>
        <path d="M375.31,80.64H367V64.57H375v1.1h-6.62v6h6.24v1.1h-6.24v6.8h7v1.1Z" transform="translate(0.5)" style="fill: #fff"/>
        <path d="M388.81,80.64h-1.5L385,76.74c-.91-1.44-1.46-2.33-2-3.28H383c-.51,1-1,1.8-1.93,3.31l-2.2,3.87h-1.5l4.95-8.15-4.76-7.91H379l2.46,4.16c.63,1,1.1,1.87,1.59,2.73h0c.48-.93,1-1.67,1.6-2.7l2.52-4.19h1.53l-5,7.81Z" transform="translate(0.5)" style="fill: #fff"/>
        <path d="M391.92,64.76a19.51,19.51,0,0,1,3.45-.31c4.93,0,5.48,3.09,5.48,4.53,0,3.89-3.22,5-5.8,5a7.07,7.07,0,0,1-1.84-.17v6.8h-1.29V64.76Zm1.29,8a6.33,6.33,0,0,0,1.91.21c2.75,0,4.42-1.35,4.42-3.83s-1.86-3.57-4.19-3.57a9.48,9.48,0,0,0-2.14.19Z" transform="translate(0.5)" style="fill: #fff"/>
        <path d="M412.62,80.64h-8.3V64.57h7.94v1.1h-6.63v6h6.25v1.1h-6.25v6.8h7v1.1Z" transform="translate(0.5)" style="fill: #fff"/>
        <path d="M421.68,72.89c1.29.4,2.07,1.63,2.45,3.43a21,21,0,0,0,1.19,4.32H424a20.85,20.85,0,0,1-1-3.92c-.49-2.28-1.44-3.39-3.5-3.39h-2.3v7.31h-1.29V64.79a17.22,17.22,0,0,1,3.49-.34c2.07,0,3.38.42,4.29,1.31a4.15,4.15,0,0,1,1.15,2.92,4.24,4.24,0,0,1-3.09,4.17v0Zm-2.18-.59c2.39,0,3.95-1.35,3.95-3.43,0-2.69-2.14-3.36-4.15-3.36a9.19,9.19,0,0,0-2.18.19v6.6Z" transform="translate(0.5)" style="fill: #fff"/>
        <path d="M428.32,64.57h1.31V80.64h-1.31Z" transform="translate(0.5)" style="fill: #fff"/>
        <path d="M442.23,80.64h-8.3V64.57h7.94v1.1h-6.63v6h6.24v1.1h-6.24v6.8h7v1.1Z" transform="translate(0.5)" style="fill: #fff"/>
        <path d="M456.66,80.64h-1.25l-5.78-9.08a56.19,56.19,0,0,1-3-5.25l-.06,0c.12,2,.14,3.77.14,6.52v7.79h-1.25V64.57h1.29l5.87,9.17a53,53,0,0,1,2.93,5.12l0,0c-.17-2.2-.18-4-.18-6.58V64.57h1.27V80.64Z" transform="translate(0.5)" style="fill: #fff"/>
        <path d="M471.62,80.11a10.3,10.3,0,0,1-4.19.76c-3.92,0-7.48-2.52-7.48-8.17,0-5,3.07-8.38,8-8.38a7.85,7.85,0,0,1,3.61.68l-.39,1.12a7.39,7.39,0,0,0-3.22-.7c-4,0-6.64,2.69-6.64,7.28,0,4.36,2.41,7.07,6.5,7.07a8.48,8.48,0,0,0,3.47-.72Z" transform="translate(0.5)" style="fill: #fff"/>
        <path d="M483.07,80.64h-8.3V64.57h7.94v1.1h-6.62v6h6.24v1.1h-6.24v6.8h7v1.1Z" transform="translate(0.5)" style="fill: #fff"/>
      </g>
      <polygon points="447.53 489.51 303.29 11.08 300.14 0.82 289.77 0.86 437.95 493.39 442.04 506.97 453.46 498.56 727.66 297.01 731.07 294.98 730.94 281.64 729.75 281.61 447.53 489.51" style="fill: #fff"/>
    </g>
    <g id="portfolio">
      <g>
        <image width="429" height="669" transform="translate(9.56)" xlink:href="../3D9B75D5.png" style="isolation: isolate"/>
        <polygon points="399.05 367 174.05 367 174.05 332 388.27 332 399.05 367" style="fill: #333"/>
        <g>
          <path d="M227.85,341.77a18.5,18.5,0,0,1,3.45-.32c4.93,0,5.48,3.09,5.48,4.53,0,3.89-3.22,5-5.8,5a7.07,7.07,0,0,1-1.84-.17v6.8h-1.3V341.77Zm1.29,8a6.27,6.27,0,0,0,1.9.21c2.76,0,4.43-1.35,4.43-3.83s-1.86-3.57-4.19-3.57a9.35,9.35,0,0,0-2.14.19Z" transform="translate(0.5)" style="fill: #ffa1ac"/>
          <path d="M253.16,349.47c0,5.69-3.3,8.42-7,8.42-3.91,0-6.87-3.06-6.87-8.13,0-5.33,3.06-8.44,7.06-8.44S253.16,344.52,253.16,349.47Zm-12.55.25c0,3.56,2,7.09,5.57,7.09s5.63-3.43,5.63-7.27c0-3.35-1.74-7.14-5.57-7.14S240.61,346.15,240.61,349.72Z" transform="translate(0.5)" style="fill: #ffa1ac"/>
          <path d="M262.3,349.89c1.29.4,2.08,1.63,2.46,3.43a20.77,20.77,0,0,0,1.18,4.32h-1.35a21.4,21.4,0,0,1-1-3.92c-.48-2.28-1.43-3.38-3.49-3.38h-2.31v7.3h-1.29V341.79a17.36,17.36,0,0,1,3.49-.34c2.08,0,3.39.42,4.3,1.31a4.15,4.15,0,0,1,1.15,2.92,4.24,4.24,0,0,1-3.1,4.17v0Zm-2.18-.59c2.39,0,4-1.35,4-3.43,0-2.69-2.14-3.36-4.15-3.36a9.19,9.19,0,0,0-2.18.19v6.6Z" transform="translate(0.5)" style="fill: #ffa1ac"/>
          <path d="M278.26,342.68h-5v15h-1.31v-15h-5v-1.11h11.35v1.11Z" transform="translate(0.5)" style="fill: #ffa1ac"/>
          <path d="M280.5,357.64V341.58h7.92v1.1h-6.61v6.2h6.08V350h-6.08v7.66Z" transform="translate(0.5)" style="fill: #ffa1ac"/>
          <path d="M304.82,349.47c0,5.69-3.31,8.42-7,8.42-3.91,0-6.87-3.06-6.87-8.13,0-5.33,3.06-8.44,7.06-8.44S304.82,344.52,304.82,349.47Zm-12.55.25c0,3.56,2,7.09,5.56,7.09s5.63-3.43,5.63-7.27c0-3.35-1.73-7.14-5.56-7.14S292.27,346.15,292.27,349.72Z" transform="translate(0.5)" style="fill: #ffa1ac"/>
          <path d="M316.37,357.64h-8.25V341.58h1.31v15h6.94Z" transform="translate(0.5)" style="fill: #ffa1ac"/>
          <path d="M319.23,341.57h1.31v16.07h-1.31Z" transform="translate(0.5)" style="fill: #ffa1ac"/>
          <path d="M337.75,349.47c0,5.69-3.31,8.42-7,8.42-3.92,0-6.88-3.06-6.88-8.13,0-5.33,3.07-8.44,7.07-8.44S337.75,344.52,337.75,349.47Zm-12.55.25c0,3.56,2,7.09,5.56,7.09s5.63-3.43,5.63-7.27c0-3.35-1.73-7.14-5.56-7.14S325.2,346.15,325.2,349.72Z" transform="translate(0.5)" style="fill: #ffa1ac"/>
        </g>
        <g>
          <polygon points="10.8 397.5 206.05 667.02 436.55 497.62 287.55 0 76.55 0 10.8 397.5" style="fill: none"/>
          <polygon points="446.13 494.76 297.99 0 287.55 0 436.55 497.62 206.05 667.02 10.8 397.5 76.55 0 66.41 0 0.68 395.86 0 399.99 2.46 403.37 197.96 672.9 203.86 681.04 211.97 675.08 442.47 505.68 448.15 501.51 446.13 494.76" style="fill: #fff"/>
        </g>
      </g>
    </g>
    <g id="contact-2" data-name="contact">
      <polygon points="39.75 808.75 733.75 298.75 733.75 807.75 39.75 808.75" style="fill: none"/>
    </g>
  </g>
</svg>
